<svg xmlns="http://www.w3.org/2000/svg" width="263.849" height="50"><path fill="#F7F7F7" d="M203.408 47.078A2.922 2.922 0 01200.486 50H2.922A2.923 2.923 0 010 47.078V2.922A2.923 2.923 0 012.922 0h197.564a2.922 2.922 0 012.922 2.922v44.156z"/><path fill="#971F32" d="M200.271 50h60.702a2.875 2.875 0 002.876-2.875V2.875A2.875 2.875 0 00260.973 0h-60.702"/><g fill="#929092"><path d="M18.479 27.999a4.937 4.937 0 002.497.705c1.424 0 2.257-.752 2.257-1.841 0-1.009-.576-1.585-2.033-2.145-1.761-.624-2.849-1.537-2.849-3.057 0-1.681 1.393-2.929 3.489-2.929 1.104 0 1.905.256 2.385.528l-.384 1.136a4.3 4.3 0 00-2.049-.512c-1.473 0-2.033.88-2.033 1.617 0 1.008.657 1.504 2.145 2.081 1.825.704 2.753 1.584 2.753 3.169 0 1.665-1.233 3.105-3.778 3.105-1.041 0-2.177-.304-2.753-.688l.353-1.169zM27.391 26.078c.032 1.905 1.249 2.689 2.657 2.689 1.008 0 1.617-.176 2.145-.4l.24 1.008c-.496.224-1.344.48-2.577.48-2.385 0-3.81-1.569-3.81-3.906s1.376-4.178 3.633-4.178c2.529 0 3.201 2.225 3.201 3.649 0 .288-.032.512-.048.656h-5.441zm4.13-1.008c.016-.896-.368-2.289-1.953-2.289-1.425 0-2.049 1.313-2.161 2.289h4.114zM38.913 29.696l-.112-.977h-.048c-.432.608-1.265 1.153-2.369 1.153-1.569 0-2.369-1.104-2.369-2.225 0-1.873 1.665-2.897 4.658-2.881v-.16c0-.641-.176-1.793-1.761-1.793-.72 0-1.473.224-2.017.576l-.32-.928c.64-.416 1.568-.688 2.545-.688 2.369 0 2.945 1.617 2.945 3.169v2.897c0 .672.032 1.329.128 1.857h-1.28zm-.208-3.954c-1.537-.032-3.281.24-3.281 1.745 0 .913.608 1.345 1.329 1.345 1.008 0 1.648-.64 1.873-1.296a1.47 1.47 0 00.08-.448v-1.346zM42.335 24.366c0-.913-.016-1.697-.064-2.417h1.232l.048 1.521h.064c.352-1.041 1.2-1.697 2.145-1.697.16 0 .272.016.4.048v1.328a2.115 2.115 0 00-.48-.048c-.992 0-1.696.752-1.889 1.809a3.974 3.974 0 00-.064.656v4.13h-1.393v-5.33zM52.929 29.408c-.368.192-1.185.448-2.225.448-2.337 0-3.857-1.585-3.857-3.954 0-2.385 1.632-4.114 4.162-4.114.832 0 1.568.208 1.953.4l-.32 1.088c-.336-.192-.865-.368-1.633-.368-1.777 0-2.737 1.313-2.737 2.929 0 1.792 1.152 2.897 2.689 2.897.801 0 1.329-.208 1.729-.384l.239 1.058zM54.575 18.331h1.409v4.834h.032c.224-.4.576-.752 1.009-.992.416-.24.912-.4 1.44-.4 1.041 0 2.705.641 2.705 3.313v4.61h-1.409v-4.45c0-1.249-.464-2.305-1.792-2.305-.913 0-1.633.641-1.889 1.409-.08.192-.096.4-.096.672v4.674h-1.409V18.331zM66.511 28.863c0-.592.4-1.008.96-1.008.56 0 .944.416.944 1.008 0 .577-.368 1.009-.96 1.009-.56 0-.944-.432-.944-1.009zM69.822 28.863c0-.592.4-1.008.96-1.008.56 0 .944.416.944 1.008 0 .577-.368 1.009-.96 1.009-.56 0-.944-.432-.944-1.009zM73.134 28.863c0-.592.4-1.008.96-1.008.56 0 .944.416.944 1.008 0 .577-.368 1.009-.96 1.009-.56 0-.944-.432-.944-1.009z"/></g><g fill="#FDDDF3"><path d="M216.853 20.381c.615-.126 1.498-.196 2.339-.196 1.303 0 2.144.238 2.731.771.477.42.742 1.064.742 1.793 0 1.247-.784 2.073-1.779 2.409v.042c.729.252 1.163.925 1.387 1.905.309 1.316.533 2.227.729 2.591h-1.26c-.154-.266-.365-1.079-.631-2.255-.279-1.303-.784-1.793-1.891-1.835h-1.148v4.09h-1.219v-9.315zm1.218 4.3h1.246c1.303 0 2.129-.714 2.129-1.793 0-1.219-.883-1.751-2.171-1.765-.589 0-1.009.056-1.204.112v3.446zM229.272 25.27h-3.67v3.404h4.09v1.022h-5.309v-9.441h5.1v1.022h-3.881v2.983h3.67v1.01zM231.104 28.211a4.317 4.317 0 002.185.616c1.247 0 1.976-.658 1.976-1.611 0-.882-.505-1.387-1.779-1.877-1.541-.546-2.494-1.345-2.494-2.675 0-1.471 1.219-2.563 3.055-2.563.967 0 1.666.224 2.087.462l-.337.995a3.76 3.76 0 00-1.793-.448c-1.288 0-1.778.77-1.778 1.415 0 .882.574 1.317 1.877 1.821 1.597.617 2.409 1.387 2.409 2.774 0 1.457-1.078 2.717-3.306 2.717-.911 0-1.905-.266-2.409-.603l.307-1.023zM243.063 25.27h-3.67v3.404h4.091v1.022h-5.31v-9.441h5.099v1.022h-3.88v2.983h3.67v1.01zM247.079 21.292h-2.872v-1.037h6.989v1.037h-2.885v8.404h-1.232v-8.404z"/></g></svg>